ffmpeg version N-102852-g758e2da289 Copyright (c) 2000-2021 the FFmpeg developers
  built with gcc 7 (Ubuntu 7.5.0-3ubuntu1~18.04)
  configuration: --prefix=/home/aleksandr/ffmpeg_debug_build --pkg-config-flags=--static --extra-cflags=-I/home/aleksandr/ffmpeg_debug_build/include --extra-ldflags=-L/home/aleksandr/ffmpeg_debug_build/lib --extra-libs='-lpthread -lm' --bindir=/home/aleksandr/bin_debug --enable-gpl --enable-libass --enable-libfdk-aac --enable-libfreetype --enable-libmp3lame --enable-libopus --enable-libtheora --enable-libvorbis --enable-libvpx --enable-libx264 --enable-libx265 --enable-nonfree
  libavutil      57.  0.100 / 57.  0.100
  libavcodec     59.  3.101 / 59.  3.101
  libavformat    59.  4.100 / 59.  4.100
  libavdevice    59.  0.100 / 59.  0.100
  libavfilter     8.  0.103 /  8.  0.103
  libswscale      6.  0.100 /  6.  0.100
  libswresample   4.  0.100 /  4.  0.100
  libpostproc    56.  0.100 / 56.  0.100
Input #0, matroska,webm, from '../.././Samples/9_AVC_8bits_3840x2160_60_000fps.mkv':
  Metadata:
    encoder         : Haali Matroska Writer b0
  Duration: 00:00:08.33, start: 0.000000, bitrate: 118015 kb/s
  Stream #0:0(eng): Video: h264 (Main), yuv420p(progressive), 3840x2160 [SAR 1:1 DAR 16:9], 60 fps, 60 tbr, 20k tbn (default)
Stream mapping:
  Stream #0:0 -> #0:0 (h264 (native) -> h264 (libx264))
Press [q] to stop, [?] for help
[libx264 @ 0x5639afe88b40] using SAR=1/1
[libx264 @ 0x5639afe88b40] using cpu capabilities: MMX2 SSE2Fast SSSE3 SSE4.2 AVX FMA3 BMI2 AVX2
[libx264 @ 0x5639afe88b40] profile High, level 5.2
[libx264 @ 0x5639afe88b40] 264 - core 152 r2854 e9a5903 - H.264/MPEG-4 AVC codec - Copyleft 2003-2017 - http://www.videolan.org/x264.html - options: cabac=1 ref=3 deblock=1:0:0 analyse=0x3:0x113 me=hex subme=7 psy=1 psy_rd=1.00:0.00 mixed_ref=1 me_range=16 chroma_me=1 trellis=1 8x8dct=1 cqm=0 deadzone=21,11 fast_pskip=1 chroma_qp_offset=-2 threads=6 lookahead_threads=1 sliced_threads=0 nr=0 decimate=1 interlaced=0 bluray_compat=0 constrained_intra=0 bframes=3 b_pyramid=2 b_adapt=1 b_bias=0 direct=1 weightb=1 open_gop=0 weightp=2 keyint=250 keyint_min=25 scenecut=40 intra_refresh=0 rc_lookahead=40 rc=crf mbtree=1 crf=23.0 qcomp=0.60 qpmin=0 qpmax=69 qpstep=4 ip_ratio=1.40 aq=1:1.00
Output #0, mov, to '/home/aleksandr/Debug-release_tests/Debug/Samples/9_AVC_8bits_3840x2160_60_000fps.mkv_tc/output_tc1.mov':
  Metadata:
    encoder         : Lavf59.4.100
  Stream #0:0(eng): Video: h264 (avc1 / 0x31637661), yuv420p(progressive), 3840x2160 [SAR 1:1 DAR 16:9], q=2-31, 60 fps, 15360 tbn (default)
    Metadata:
      encoder         : Lavc59.3.101 libx264
    Side data:
      cpb: bitrate max/min/avg: 0/0/0 buffer size: 0 vbv_delay: N/A
frame=    1 fps=0.0 q=0.0 size=       0kB time=00:00:00.00 bitrate=N/A speed=   0x    frame=   24 fps=0.0 q=0.0 size=       0kB time=00:00:00.00 bitrate=N/A speed=   0x    frame=   44 fps= 37 q=0.0 size=       0kB time=00:00:00.00 bitrate=N/A speed=   0x    frame=   47 fps= 13 q=0.0 size=       0kB time=00:00:00.00 bitrate=N/A speed=   0x    frame=   52 fps= 12 q=31.0 size=     512kB time=-00:00:00.01 bitrate=N/A speed=N/A    frame=   53 fps= 11 q=31.0 size=     768kB time=00:00:00.00 bitrate=96796061.5kbits/s speed=1.3e-05x    frame=   55 fps=8.8 q=31.0 size=     768kB time=00:00:00.03 bitrate=188386.8kbits/s speed=0.00537x    frame=   60 fps=8.6 q=31.0 size=    1792kB time=00:00:00.11 bitrate=125761.2kbits/s speed=0.0168x    frame=   61 fps=7.4 q=31.0 size=    1792kB time=00:00:00.13 bitrate=110049.3kbits/s speed=0.0162x    frame=   65 fps=7.3 q=31.0 size=    2560kB time=00:00:00.20 bitrate=104825.0kbits/s speed=0.0226x    frame=   68 fps=6.2 q=31.0 size=    2816kB time=00:00:00.25 bitrate=92251.9kbits/s speed=0.023x    frame=   69 fps=5.7 q=31.0 size=    3072kB time=00:00:00.26 bitrate=94349.8kbits/s speed=0.0221x    frame=   74 fps=5.6 q=31.0 size=    3584kB time=00:00:00.35 bitrate=83871.3kbits/s speed=0.0265x    frame=   77 fps=5.4 q=31.0 size=    4096kB time=00:00:00.40 bitrate=83873.2kbits/s speed=0.0282x    frame=   79 fps=5.0 q=31.0 size=    4352kB time=00:00:00.43 bitrate=82261.3kbits/s speed=0.0274x    frame=   80 fps=4.6 q=31.0 size=    4608kB time=00:00:00.45 bitrate=83874.6kbits/s speed=0.0259x    frame=   82 fps=4.4 q=31.0 size=    4864kB time=00:00:00.48 bitrate=82429.3kbits/s speed=0.026x    frame=   87 fps=4.5 q=31.0 size=    5376kB time=00:00:00.56 bitrate=77709.5kbits/s speed=0.0291x    frame=   89 fps=4.3 q=31.0 size=    5888kB time=00:00:00.60 bitrate=80382.6kbits/s speed=0.029x    frame=   93 fps=4.3 q=31.0 size=    6400kB time=00:00:00.66 bitrate=78635.9kbits/s speed=0.0308x    frame=   97 fps=4.2 q=31.0 size=    7168kB time=00:00:00.73 bitrate=80066.4kbits/s speed=0.0314x    frame=  101 fps=4.2 q=31.0 size=    7680kB time=00:00:00.80 bitrate=78637.2kbits/s speed=0.033x    frame=  105 fps=4.1 q=31.0 size=    8192kB time=00:00:00.86 bitrate=77427.8kbits/s speed=0.0336x    frame=  108 fps=3.9 q=31.0 size=    8704kB time=00:00:00.91 bitrate=77780.0kbits/s speed=0.0332x    frame=  110 fps=3.8 q=31.0 size=    8960kB time=00:00:00.95 bitrate=77258.5kbits/s speed=0.0326x    frame=  112 fps=3.7 q=31.0 size=    9216kB time=00:00:00.98 bitrate=76772.3kbits/s speed=0.0325x    frame=  117 fps=3.6 q=31.0 size=    9984kB time=00:00:01.06 bitrate=76672.7kbits/s speed=0.0329x    frame=  118 fps=3.5 q=31.0 size=    9984kB time=00:00:01.08 bitrate=75493.2kbits/s speed=0.0319x    frame=  119 fps=3.4 q=31.0 size=   10240kB time=00:00:01.10 bitrate=76255.8kbits/s speed=0.031x    frame=  120 fps=3.3 q=31.0 size=   10496kB time=00:00:01.11 bitrate=76995.7kbits/s speed=0.0304x    frame=  125 fps=3.2 q=31.0 size=   11264kB time=00:00:01.20 bitrate=76891.6kbits/s speed=0.0312x    frame=  127 fps=3.1 q=31.0 size=   11264kB time=00:00:01.23 bitrate=74813.6kbits/s speed=0.0296x    frame=  128 fps=3.0 q=31.0 size=   11520kB time=00:00:01.25 bitrate=75493.8kbits/s speed=0.0292x    frame=  133 fps=3.0 q=31.0 size=   12288kB time=00:00:01.33 bitrate=75494.0kbits/s speed=0.0299x    frame=  134 fps=2.9 q=31.0 size=   12544kB time=00:00:01.35 bitrate=76115.4kbits/s speed=0.0293x    frame=  136 fps=2.9 q=31.0 size=   12800kB time=00:00:01.38 bitrate=75797.3kbits/s speed=0.029x    frame=  138 fps=2.7 q=31.0 size=   13056kB time=00:00:01.41 bitrate=75494.2kbits/s speed=0.0281x    frame=  143 fps=2.8 q=31.0 size=   14080kB time=00:00:01.50 bitrate=76892.4kbits/s speed=0.0293x    frame=  145 fps=2.7 q=31.0 size=   14592kB time=00:00:01.53 bitrate=77956.2kbits/s speed=0.029x    frame=  150 fps=2.8 q=31.0 size=   15360kB time=00:00:01.61 bitrate=77829.5kbits/s speed=0.03x    frame=  151 fps=2.8 q=31.0 size=   15616kB time=00:00:01.63 bitrate=78319.3kbits/s speed=0.03x    frame=  153 fps=2.8 q=31.0 size=   16128kB time=00:00:01.66 bitrate=79269.4kbits/s speed=0.03x    frame=  157 fps=2.7 q=31.0 size=   17152kB time=00:00:01.73 bitrate=81060.1kbits/s speed=0.0303x    frame=  159 fps=2.7 q=31.0 size=   17408kB time=00:00:01.76 bitrate=80717.7kbits/s speed=0.03x    frame=  160 fps=2.6 q=31.0 size=   17664kB time=00:00:01.78 bitrate=81139.4kbits/s speed=0.0295x    frame=  165 fps=2.6 q=31.0 size=   18944kB time=00:00:01.86 bitrate=83134.3kbits/s speed=0.0297x    frame=  169 fps=2.6 q=31.0 size=   19968kB time=00:00:01.93 bitrate=84606.6kbits/s speed=0.0293x    frame=  170 fps=2.5 q=31.0 size=   20480kB time=00:00:01.95 bitrate=86034.3kbits/s speed=0.029x    frame=  175 fps=2.5 q=31.0 size=   21760kB time=00:00:02.03 bitrate=87665.2kbits/s speed=0.0294x    frame=  177 fps=2.5 q=31.0 size=   22016kB time=00:00:02.06 bitrate=87266.0kbits/s speed=0.0292x    frame=  178 fps=2.5 q=31.0 size=   22272kB time=00:00:02.08 bitrate=87574.5kbits/s speed=0.0288x    frame=  179 fps=2.4 q=31.0 size=   22784kB time=00:00:02.10 bitrate=88876.7kbits/s speed=0.0285x    frame=  184 fps=2.4 q=31.0 size=   23808kB time=00:00:02.18 bitrate=89326.6kbits/s speed=0.0289x    frame=  185 fps=2.4 q=31.0 size=   24064kB time=00:00:02.20 bitrate=89603.1kbits/s speed=0.0286x    frame=  186 fps=2.3 q=31.0 size=   24576kB time=00:00:02.21 bitrate=90821.5kbits/s speed=0.0278x    frame=  191 fps=2.3 q=31.0 size=   25856kB time=00:00:02.30 bitrate=92089.8kbits/s speed=0.0282x    frame=  192 fps=2.3 q=31.0 size=   26112kB time=00:00:02.31 bitrate=92332.6kbits/s speed=0.0279x    frame=  193 fps=2.3 q=31.0 size=   26112kB time=00:00:02.33 bitrate=91673.1kbits/s speed=0.0276x    frame=  194 fps=2.2 q=31.0 size=   26624kB time=00:00:02.35 bitrate=92807.7kbits/s speed=0.0273x    frame=  195 fps=2.2 q=31.0 size=   26880kB time=00:00:02.36 bitrate=93040.2kbits/s speed=0.027x    frame=  196 fps=2.2 q=31.0 size=   27136kB time=00:00:02.38 bitrate=93269.5kbits/s speed=0.0267x    frame=  201 fps=2.2 q=31.0 size=   28160kB time=00:00:02.46 bitrate=93519.3kbits/s speed=0.0273x    frame=  203 fps=2.2 q=31.0 size=   28928kB time=00:00:02.50 bitrate=94788.9kbits/s speed=0.0273x    frame=  204 fps=2.2 q=31.0 size=   29184kB time=00:00:02.51 bitrate=94994.5kbits/s speed=0.0272x    frame=  209 fps=2.2 q=31.0 size=   30464kB time=00:00:02.60 bitrate=95982.7kbits/s speed=0.0276x    frame=  210 fps=2.2 q=31.0 size=   30720kB time=00:00:02.61 bitrate=96172.8kbits/s speed=0.0274x    frame=  212 fps=2.2 q=31.0 size=   31232kB time=00:00:02.65 bitrate=96545.9kbits/s speed=0.0273x    frame=  213 fps=2.2 q=31.0 size=   31488kB time=00:00:02.66 bitrate=96728.9kbits/s speed=0.0271x    frame=  218 fps=2.2 q=31.0 size=   33024kB time=00:00:02.75 bitrate=98373.3kbits/s speed=0.0277x    frame=  219 fps=2.2 q=31.0 size=   33280kB time=00:00:02.76 bitrate=98538.7kbits/s speed=0.0275x    frame=  223 fps=2.2 q=31.0 size=   34560kB time=00:00:02.83 bitrate=99920.9kbits/s speed=0.0279x    frame=  224 fps=2.1 q=31.0 size=   34560kB time=00:00:02.85 bitrate=99336.6kbits/s speed=0.0273x    frame=  229 fps=2.2 q=31.0 size=   35840kB time=00:00:02.93 bitrate=100089.2kbits/s speed=0.0278x    frame=  231 fps=2.2 q=31.0 size=   36608kB time=00:00:02.96 bitrate=101085.3kbits/s speed=0.0278x    frame=  235 fps=2.1 q=31.0 size=   37632kB time=00:00:03.03 bitrate=101629.1kbits/s speed=0.0275x    frame=  236 fps=2.1 q=31.0 size=   37888kB time=00:00:03.05 bitrate=101761.4kbits/s speed=0.0274x    frame=  241 fps=2.1 q=31.0 size=   39168kB time=00:00:03.13 bitrate=102401.5kbits/s speed=0.0279x    frame=  242 fps=2.1 q=31.0 size=   39680kB time=00:00:03.15 bitrate=103191.2kbits/s speed=0.0276x    frame=  243 fps=2.1 q=31.0 size=   39936kB time=00:00:03.16 bitrate=103310.3kbits/s speed=0.0275x    frame=  248 fps=2.1 q=31.0 size=   41216kB time=00:00:03.25 bitrate=103887.7kbits/s speed=0.0278x    frame=  251 fps=2.1 q=31.0 size=   42240kB time=00:00:03.30 bitrate=104855.6kbits/s speed=0.0278x    frame=  254 fps=2.1 q=31.0 size=   43008kB time=00:00:03.35 bitrate=105168.7kbits/s speed=0.0279x    frame=  255 fps=2.1 q=31.0 size=   43264kB time=00:00:03.36 bitrate=105270.9kbits/s speed=0.0277x    frame=  256 fps=2.1 q=31.0 size=   43520kB time=00:00:03.38 bitrate=105372.2kbits/s speed=0.0275x    frame=  261 fps=2.1 q=31.0 size=   44800kB time=00:00:03.46 bitrate=105863.9kbits/s speed=0.0279x    frame=  263 fps=2.1 q=31.0 size=   45568kB time=00:00:03.50 bitrate=106653.3kbits/s speed=0.0279x    frame=  267 fps=2.1 q=31.0 size=   46848kB time=00:00:03.56 bitrate=107599.6kbits/s speed=0.028x    frame=  268 fps=2.1 q=31.0 size=   47104kB time=00:00:03.58 bitrate=107684.5kbits/s speed=0.0279x    frame=  273 fps=2.1 q=31.0 size=   48384kB time=00:00:03.66 bitrate=108096.8kbits/s speed=0.0283x    frame=  274 fps=2.1 q=31.0 size=   48896kB time=00:00:03.68 bitrate=108746.4kbits/s speed=0.0281x    frame=  275 fps=2.1 q=31.0 size=   49152kB time=00:00:03.70 bitrate=108823.4kbits/s speed=0.0279x    frame=  276 fps=2.0 q=31.0 size=   49408kB time=00:00:03.71 bitrate=108899.6kbits/s speed=0.0276x    frame=  281 fps=2.1 q=31.0 size=   50688kB time=00:00:03.80 bitrate=109270.9kbits/s speed=0.0279x    frame=  283 fps=2.0 q=31.0 size=   51456kB time=00:00:03.83 bitrate=109961.9kbits/s speed=0.0276x    frame=  288 fps=2.0 q=31.0 size=   52736kB time=00:00:03.91 bitrate=110299.5kbits/s speed=0.0278x    frame=  290 fps=2.0 q=31.0 size=   53248kB time=00:00:03.95 bitrate=110430.6kbits/s speed=0.0277x    frame=  291 fps=2.0 q=31.0 size=   53760kB time=00:00:03.96 bitrate=111023.9kbits/s speed=0.0275x    frame=  292 fps=2.0 q=31.0 size=   53760kB time=00:00:03.98 bitrate=110559.4kbits/s speed=0.0274x    frame=  293 fps=2.0 q=31.0 size=   54016kB time=00:00:04.00 bitrate=110623.0kbits/s speed=0.0273x    frame=  298 fps=2.0 q=31.0 size=   55552kB time=00:00:04.08 bitrate=111447.0kbits/s speed=0.0276x    frame=  299 fps=2.0 q=31.0 size=   55808kB time=00:00:04.10 bitrate=111505.4kbits/s speed=0.0271x    frame=  300 fps=2.0 q=31.0 size=   56832kB time=00:00:04.11 bitrate=113091.7kbits/s speed=0.027x    frame=  305 fps=2.0 q=31.0 size=   58368kB time=00:00:04.20 bitrate=113843.7kbits/s speed=0.0274x    frame=  306 fps=2.0 q=31.0 size=   58624kB time=00:00:04.21 bitrate=113891.1kbits/s speed=0.0273x    frame=  308 fps=2.0 q=31.0 size=   58880kB time=00:00:04.25 bitrate=113491.3kbits/s speed=0.0274x    frame=  310 fps=2.0 q=31.0 size=   59648kB time=00:00:04.28 bitrate=114076.9kbits/s speed=0.0275x    frame=  311 fps=2.0 q=31.0 size=   59904kB time=00:00:04.30 bitrate=114122.4kbits/s speed=0.0273x    frame=  312 fps=2.0 q=31.0 size=   59904kB time=00:00:04.31 bitrate=113681.8kbits/s speed=0.0271x    frame=  313 fps=1.9 q=31.0 size=   60416kB time=00:00:04.33 bitrate=114212.5kbits/s speed=0.027x    frame=  314 fps=1.9 q=31.0 size=   60672kB time=00:00:04.35 bitrate=114257.0kbits/s speed=0.0268x    frame=  319 fps=1.9 q=31.0 size=   61952kB time=00:00:04.43 bitrate=114474.5kbits/s speed=0.0271x    frame=  322 fps=2.0 q=31.0 size=   62976kB time=00:00:04.48 bitrate=115068.9kbits/s speed=0.0273x    frame=  323 fps=2.0 q=31.0 size=   62976kB time=00:00:04.50 bitrate=114642.7kbits/s speed=0.0272x    frame=  328 fps=2.0 q=31.0 size=   64256kB time=00:00:04.58 bitrate=114846.1kbits/s speed=0.0275x    frame=  330 fps=2.0 q=31.0 size=   64768kB time=00:00:04.61 bitrate=114925.4kbits/s speed=0.0274x    frame=  334 fps=2.0 q=31.0 size=   65792kB time=00:00:04.68 bitrate=115080.6kbits/s speed=0.0276x    frame=  335 fps=2.0 q=31.0 size=   66048kB time=00:00:04.70 bitrate=115118.7kbits/s speed=0.0275x    frame=  338 fps=2.0 q=31.0 size=   66816kB time=00:00:04.75 bitrate=115231.5kbits/s speed=0.0277x    frame=  340 fps=2.0 q=31.0 size=   67072kB time=00:00:04.78 bitrate=114866.9kbits/s speed=0.0277x    frame=  342 fps=2.0 q=31.0 size=   67840kB time=00:00:04.81 bitrate=115378.1kbits/s speed=0.0277x    frame=  343 fps=2.0 q=31.0 size=   67840kB time=00:00:04.83 bitrate=114980.3kbits/s speed=0.0277x    frame=  346 fps=2.0 q=31.0 size=   68864kB time=00:00:04.88 bitrate=115520.8kbits/s speed=0.0278x    frame=  350 fps=2.0 q=31.0 size=   69632kB time=00:00:04.95 bitrate=115236.0kbits/s speed=0.0279x    frame=  351 fps=2.0 q=31.0 size=   69888kB time=00:00:04.96 bitrate=115271.5kbits/s speed=0.0278x    frame=  352 fps=2.0 q=31.0 size=   69888kB time=00:00:04.98 bitrate=114886.0kbits/s speed=0.0277x    frame=  357 fps=2.0 q=31.0 size=   71424kB time=00:00:05.06 bitrate=115479.9kbits/s speed=0.028x    frame=  358 fps=2.0 q=31.0 size=   71680kB time=00:00:05.08 bitrate=115513.8kbits/s speed=0.0278x    frame=  362 fps=2.0 q=31.0 size=   72448kB time=00:00:05.15 bitrate=115240.2kbits/s speed=0.0279x    frame=  363 fps=2.0 q=31.0 size=   72704kB time=00:00:05.16 bitrate=115274.3kbits/s speed=0.0278x    frame=  365 fps=1.9 q=31.0 size=   73216kB time=00:00:05.20 bitrate=115342.0kbits/s speed=0.0278x    frame=  370 fps=1.9 q=31.0 size=   74240kB time=00:00:05.28 bitrate=115110.5kbits/s speed=0.0278x    frame=  371 fps=1.9 q=31.0 size=   74496kB time=00:00:05.30 bitrate=115144.2kbits/s speed=0.0275x    frame=  372 fps=1.9 q=31.0 size=   74496kB time=00:00:05.31 bitrate=114783.2kbits/s speed=0.0274x    frame=  377 fps=1.9 q=31.0 size=   75776kB time=00:00:05.40 bitrate=114953.7kbits/s speed=0.0277x    frame=  378 fps=1.9 q=31.0 size=   76032kB time=00:00:05.41 bitrate=114987.1kbits/s speed=0.0276x    frame=  379 fps=1.9 q=31.0 size=   76288kB time=00:00:05.43 bitrate=115020.4kbits/s speed=0.0272x    frame=  382 fps=1.9 q=31.0 size=   77056kB time=00:00:05.48 bitrate=115119.0kbits/s speed=0.0273x    frame=  387 fps=1.9 q=31.0 size=   77824kB time=00:00:05.56 bitrate=114525.8kbits/s speed=0.0275x    frame=  390 fps=1.9 q=31.0 size=   78592kB time=00:00:05.61 bitrate=114626.4kbits/s speed=0.0277x    frame=  394 fps=1.9 q=31.0 size=   79616kB time=00:00:05.68 bitrate=114757.9kbits/s speed=0.0277x    frame=  397 fps=1.9 q=31.0 size=   80128kB time=00:00:05.73 bitrate=114488.6kbits/s speed=0.0279x    frame=  399 fps=1.9 q=31.0 size=   80384kB time=00:00:05.76 bitrate=114190.5kbits/s speed=0.0278x    frame=  400 fps=1.9 q=31.0 size=   80640kB time=00:00:05.78 bitrate=114224.1kbits/s speed=0.0277x    frame=  405 fps=1.9 q=31.0 size=   81664kB time=00:00:05.86 bitrate=114031.4kbits/s speed=0.0279x    frame=  406 fps=1.9 q=31.0 size=   81920kB time=00:00:05.88 bitrate=114064.9kbits/s speed=0.0279x    frame=  410 fps=1.9 q=31.0 size=   82688kB time=00:00:05.95 bitrate=113844.2kbits/s speed=0.0281x    frame=  414 fps=1.9 q=31.0 size=   83456kB time=00:00:06.01 bitrate=113628.4kbits/s speed=0.0282x    frame=  415 fps=1.9 q=31.0 size=   83712kB time=00:00:06.03 bitrate=113662.2kbits/s speed=0.028x    frame=  420 fps=1.9 q=31.0 size=   84480kB time=00:00:06.11 bitrate=113142.2kbits/s speed=0.0282x    frame=  422 fps=1.9 q=31.0 size=   85248kB time=00:00:06.15 bitrate=113552.0kbits/s speed=0.0282x    frame=  423 fps=1.9 q=31.0 size=   85248kB time=00:00:06.16 bitrate=113245.1kbits/s speed=0.0281x    frame=  424 fps=1.9 q=31.0 size=   85248kB time=00:00:06.18 bitrate=112939.8kbits/s speed=0.0279x    frame=  426 fps=1.9 q=31.0 size=   86016kB time=00:00:06.21 bitrate=113346.3kbits/s speed=0.0279x    frame=  431 fps=1.9 q=31.0 size=   86784kB time=00:00:06.30 bitrate=112845.6kbits/s speed=0.0281x    frame=  434 fps=1.9 q=31.0 size=   87552kB time=00:00:06.35 bitrate=112947.9kbits/s speed=0.0282x    frame=  437 fps=1.9 q=31.0 size=   88064kB time=00:00:06.40 bitrate=112720.8kbits/s speed=0.0284x    frame=  438 fps=1.9 q=31.0 size=   88320kB time=00:00:06.41 bitrate=112754.9kbits/s speed=0.0283x    frame=  439 fps=1.9 q=31.0 size=   88320kB time=00:00:06.43 bitrate=112462.8kbits/s speed=0.0281x    frame=  441 fps=1.9 q=31.0 size=   88832kB time=00:00:06.46 bitrate=112531.7kbits/s speed=0.0281x    frame=  446 fps=1.9 q=31.0 size=   89856kB time=00:00:06.55 bitrate=112380.7kbits/s speed=0.0282x    frame=  447 fps=1.9 q=31.0 size=   89856kB time=00:00:06.56 bitrate=112095.4kbits/s speed=0.0282x    frame=  452 fps=1.9 q=31.0 size=   90624kB time=00:00:06.65 bitrate=111636.8kbits/s speed=0.0284x    frame=  454 fps=1.9 q=31.0 size=   91392kB time=00:00:06.68 bitrate=112021.4kbits/s speed=0.0284x    frame=  456 fps=1.9 q=31.0 size=   91392kB time=00:00:06.71 bitrate=111465.4kbits/s speed=0.0283x    frame=  457 fps=1.9 q=31.0 size=   91904kB time=00:00:06.73 bitrate=111812.5kbits/s speed=0.0282x    frame=  462 fps=1.9 q=31.0 size=   92928kB time=00:00:06.81 bitrate=111676.2kbits/s speed=0.0283x    frame=  464 fps=1.9 q=31.0 size=   92928kB time=00:00:06.85 bitrate=111132.7kbits/s speed=0.0284x    frame=  465 fps=1.9 q=31.0 size=   93440kB time=00:00:06.86 bitrate=111473.8kbits/s speed=0.0283x    frame=  470 fps=1.9 q=31.0 size=   94208kB time=00:00:06.95 bitrate=111042.4kbits/s speed=0.0284x    frame=  473 fps=1.9 q=31.0 size=   94720kB time=00:00:07.00 bitrate=110848.5kbits/s speed=0.0284x    frame=  474 fps=1.9 q=31.0 size=   94976kB time=00:00:07.01 bitrate=110884.1kbits/s speed=0.0284x    frame=  479 fps=1.9 q=31.0 size=   95744kB time=00:00:07.10 bitrate=110468.7kbits/s speed=0.0285x    frame=  482 fps=1.9 q=31.0 size=   96512kB time=00:00:07.15 bitrate=110576.1kbits/s speed=0.0286x    frame=  486 fps=1.9 q=31.0 size=   97280kB time=00:00:07.21 bitrate=110426.4kbits/s speed=0.0287x    frame=  487 fps=1.9 q=29.0 size=   97280kB time=00:00:07.23 bitrate=110172.0kbits/s speed=0.0287x    frame=  490 fps=1.9 q=31.0 size=   97792kB time=00:00:07.28 bitrate=109991.6kbits/s speed=0.0287x    frame=  492 fps=1.9 q=31.0 size=   98304kB time=00:00:07.31 bitrate=110063.7kbits/s speed=0.0286x    frame=  495 fps=1.9 q=31.0 size=   99072kB time=00:00:07.36 bitrate=110170.7kbits/s speed=0.0287x    frame=  500 fps=1.9 q=31.0 size=   99840kB time=00:00:07.45 bitrate=109782.9kbits/s speed=0.0289x    frame=  500 fps=1.8 q=-1.0 Lsize=  108910kB time=00:00:08.28 bitrate=107708.4kbits/s speed=0.0305x    
video:108903kB audio:0kB subtitle:0kB other streams:0kB global headers:0kB muxing overhead: 0.006776%
[libx264 @ 0x5639afe88b40] frame I:4     Avg QP:28.90  size:629751
[libx264 @ 0x5639afe88b40] frame P:126   Avg QP:31.19  size:376756
[libx264 @ 0x5639afe88b40] frame B:370   Avg QP:32.33  size:166285
[libx264 @ 0x5639afe88b40] consecutive B-frames:  1.0%  0.8%  0.6% 97.6%
[libx264 @ 0x5639afe88b40] mb I  I16..4: 10.2% 48.3% 41.5%
[libx264 @ 0x5639afe88b40] mb P  I16..4:  2.2% 19.4%  6.0%  P16..4: 35.4% 28.9%  7.4%  0.0%  0.0%    skip: 0.8%
[libx264 @ 0x5639afe88b40] mb B  I16..4:  0.1%  1.2%  0.5%  B16..8: 45.0% 11.6%  3.5%  direct:12.4%  skip:25.6%  L0:42.8% L1:44.8% BI:12.3%
[libx264 @ 0x5639afe88b40] 8x8 transform intra:68.0% inter:53.3%
[libx264 @ 0x5639afe88b40] coded y,uvDC,uvAC intra: 88.1% 84.8% 44.6% inter: 42.6% 33.2% 3.4%
[libx264 @ 0x5639afe88b40] i16 v,h,dc,p:  1% 69%  6% 24%
[libx264 @ 0x5639afe88b40] i8 v,h,dc,ddl,ddr,vr,hd,vl,hu:  3% 41%  7%  4%  6%  3% 17%  3% 16%
[libx264 @ 0x5639afe88b40] i4 v,h,dc,ddl,ddr,vr,hd,vl,hu:  4% 40% 10%  5%  7%  3% 15%  3% 13%
[libx264 @ 0x5639afe88b40] i8c dc,h,v,p: 42% 45%  5%  8%
[libx264 @ 0x5639afe88b40] Weighted P-Frames: Y:1.6% UV:0.0%
[libx264 @ 0x5639afe88b40] ref P L0: 48.9% 16.6% 22.8% 11.6%  0.1%
[libx264 @ 0x5639afe88b40] ref B L0: 92.8%  5.1%  2.0%
[libx264 @ 0x5639afe88b40] ref B L1: 99.2%  0.8%
[libx264 @ 0x5639afe88b40] kb/s:107055.08
	Command being timed: "/home/aleksandr/bin_debug/ffmpeg -i ../.././Samples/9_AVC_8bits_3840x2160_60_000fps.mkv -c:v libx264 -f mov /home/aleksandr/Debug-release_tests/Debug/Samples/9_AVC_8bits_3840x2160_60_000fps.mkv_tc/output_tc1.mov"
	User time (seconds): 635.74
	System time (seconds): 1.96
	Percent of CPU this job got: 234%
	Elapsed (wall clock) time (h:mm:ss or m:ss): 4:32.09
	Average shared text size (kbytes): 0
	Average unshared data size (kbytes): 0
	Average stack size (kbytes): 0
	Average total size (kbytes): 0
	Maximum resident set size (kbytes): 2102860
	Average resident set size (kbytes): 0
	Major (requiring I/O) page faults: 3
	Minor (reclaiming a frame) page faults: 195287
	Voluntary context switches: 27445
	Involuntary context switches: 84862
	Swaps: 0
	File system inputs: 9048
	File system outputs: 218024
	Socket messages sent: 0
	Socket messages received: 0
	Signals delivered: 0
	Page size (bytes): 4096
	Exit status: 0
